<svg width="96" height="21" viewBox="0 0 96 21" fill="none" xmlns="http://www.w3.org/2000/svg">
<path d="M0.0996016 19V18.74L0.749602 18.506C1.09627 18.3673 1.36493 18.2027 1.5556 18.012C1.74627 17.804 1.90227 17.518 2.0236 17.154L7.3796 1.788H9.5896L14.8676 17.258C15.0063 17.6393 15.1623 17.934 15.3356 18.142C15.5089 18.3327 15.7776 18.4973 16.1416 18.636L16.4536 18.74V19H9.8496V18.74L10.2396 18.61C10.6036 18.4713 10.8203 18.2807 10.8896 18.038C10.9763 17.778 10.9676 17.4747 10.8636 17.128L9.6416 13.384H3.8696L2.6216 17.05C2.50027 17.4313 2.45693 17.7347 2.4916 17.96C2.5436 18.1853 2.7516 18.3673 3.1156 18.506L3.6876 18.74V19H0.0996016ZM4.0516 12.864H9.4856L6.8596 4.778L4.0516 12.864ZM17.3218 19V18.74L17.6858 18.636C18.2924 18.4627 18.5958 18.038 18.5958 17.362V9.224C18.5958 8.84267 18.5351 8.56533 18.4138 8.392C18.2924 8.20133 18.0584 8.07133 17.7118 8.002L17.3218 7.898V7.638L21.7678 6.13L22.0278 6.39L22.2358 7.95C22.8424 7.41267 23.5271 6.97067 24.2898 6.624C25.0524 6.27733 25.8064 6.104 26.5518 6.104C27.6958 6.104 28.5711 6.416 29.1778 7.04C29.8018 7.664 30.1138 8.61733 30.1138 9.9V17.388C30.1138 18.064 30.4431 18.4887 31.1018 18.662L31.3358 18.74V19H25.1998V18.74L25.5378 18.636C26.1444 18.4453 26.4478 18.0207 26.4478 17.362V9.068C26.4478 7.95867 25.8931 7.404 24.7838 7.404C24.0211 7.404 23.1891 7.78533 22.2878 8.548V17.388C22.2878 18.064 22.5911 18.4887 23.1978 18.662L23.4318 18.74V19H17.3218ZM35.681 4.752C35.0917 4.752 34.5977 4.57 34.199 4.206C33.8003 3.82467 33.601 3.348 33.601 2.776C33.601 2.18667 33.8003 1.71 34.199 1.346C34.5977 0.981999 35.0917 0.799999 35.681 0.799999C36.2703 0.799999 36.7643 0.981999 37.163 1.346C37.579 1.71 37.787 2.18667 37.787 2.776C37.787 3.348 37.579 3.82467 37.163 4.206C36.7643 4.57 36.2703 4.752 35.681 4.752ZM31.833 25.24C30.845 25.24 30.1343 25.0667 29.701 24.72C29.2677 24.3907 29.051 23.9573 29.051 23.42C29.051 22.9347 29.2243 22.5447 29.571 22.25C29.9177 21.9553 30.325 21.808 30.793 21.808C31.261 21.808 31.6857 21.9207 32.067 22.146C32.4483 22.3887 32.743 22.7613 32.951 23.264L33.211 23.836C33.3323 24.0267 33.471 24.0873 33.627 24.018C33.8003 23.966 33.887 23.6973 33.887 23.212V9.224C33.887 8.82533 33.7917 8.53933 33.601 8.366C33.4277 8.17533 33.1677 8.04533 32.821 7.976L32.431 7.924V7.664L37.293 6.13L37.605 6.39L37.527 10.082V17.31C37.527 18.4367 37.475 19.3813 37.371 20.144C37.2843 20.9067 37.1197 21.548 36.877 22.068C36.6517 22.6053 36.3223 23.0993 35.889 23.55C35.2823 24.1567 34.6237 24.59 33.913 24.85C33.2023 25.11 32.509 25.24 31.833 25.24ZM46.2435 19.39C44.9262 19.39 43.7822 19.1213 42.8115 18.584C41.8408 18.0293 41.0868 17.2493 40.5495 16.244C40.0295 15.2387 39.7695 14.06 39.7695 12.708C39.7695 11.356 40.0468 10.186 40.6015 9.198C41.1735 8.21 41.9448 7.44733 42.9155 6.91C43.9035 6.37267 45.0128 6.104 46.2435 6.104C47.4742 6.104 48.5748 6.37267 49.5455 6.91C50.5162 7.43 51.2788 8.184 51.8335 9.172C52.4055 10.16 52.6915 11.3387 52.6915 12.708C52.6915 14.0773 52.4228 15.2647 51.8855 16.27C51.3655 17.258 50.6202 18.0293 49.6495 18.584C48.6962 19.1213 47.5608 19.39 46.2435 19.39ZM46.2435 18.87C46.8502 18.87 47.3355 18.6967 47.6995 18.35C48.0635 18.0033 48.3235 17.388 48.4795 16.504C48.6528 15.62 48.7395 14.372 48.7395 12.76C48.7395 11.1307 48.6528 9.874 48.4795 8.99C48.3235 8.106 48.0635 7.49067 47.6995 7.144C47.3355 6.79733 46.8502 6.624 46.2435 6.624C45.6368 6.624 45.1428 6.79733 44.7615 7.144C44.3975 7.49067 44.1288 8.106 43.9555 8.99C43.7995 9.874 43.7215 11.1307 43.7215 12.76C43.7215 14.372 43.7995 15.62 43.9555 16.504C44.1288 17.388 44.3975 18.0033 44.7615 18.35C45.1428 18.6967 45.6368 18.87 46.2435 18.87ZM58.3315 19.39C57.4821 19.39 56.7195 19.286 56.0435 19.078C55.3675 18.8873 54.7435 18.6447 54.1715 18.35L54.1975 15.256H54.4575L55.3415 16.816C55.7228 17.5093 56.1388 18.0293 56.5895 18.376C57.0575 18.7053 57.6468 18.87 58.3575 18.87C59.1895 18.87 59.8568 18.688 60.3595 18.324C60.8795 17.9427 61.1395 17.44 61.1395 16.816C61.1395 16.244 60.9575 15.776 60.5935 15.412C60.2295 15.048 59.5535 14.7187 58.5655 14.424L57.4735 14.086C56.4161 13.774 55.5841 13.2887 54.9775 12.63C54.3708 11.9713 54.0675 11.1653 54.0675 10.212C54.0675 9.068 54.5181 8.09733 55.4195 7.3C56.3208 6.50267 57.6121 6.104 59.2935 6.104C59.9695 6.104 60.6021 6.182 61.1915 6.338C61.7981 6.47667 62.3788 6.69333 62.9335 6.988L62.7775 9.796H62.5175L61.6075 8.184C61.2781 7.612 60.9488 7.21333 60.6195 6.988C60.3075 6.74533 59.8308 6.624 59.1895 6.624C58.6001 6.624 58.0455 6.78867 57.5255 7.118C57.0055 7.44733 56.7455 7.91533 56.7455 8.522C56.7455 9.11133 56.9621 9.57933 57.3955 9.926C57.8461 10.2727 58.5048 10.5933 59.3715 10.888L60.5415 11.226C61.7895 11.6073 62.6821 12.136 63.2195 12.812C63.7568 13.4707 64.0255 14.268 64.0255 15.204C64.0255 16.4693 63.5228 17.4833 62.5175 18.246C61.5295 19.0087 60.1341 19.39 58.3315 19.39ZM64.8294 19V18.74L65.1414 18.636C65.7654 18.428 66.0774 17.9947 66.0774 17.336V3.452C66.0774 3.088 66.0168 2.81933 65.8954 2.646C65.7741 2.47267 65.5401 2.34267 65.1934 2.256L64.8034 2.152V1.892L69.3794 0.773999L69.7954 1.008L69.6914 4.674V7.924C70.2981 7.42133 70.9481 6.99667 71.6414 6.65C72.3521 6.286 73.1321 6.104 73.9814 6.104C75.1081 6.104 76.0008 6.42467 76.6594 7.066C77.3354 7.70733 77.6734 8.69533 77.6734 10.03V17.362C77.6734 17.7087 77.7428 17.986 77.8814 18.194C78.0201 18.402 78.2628 18.558 78.6094 18.662L78.8174 18.74V19H72.7334V18.74L73.0454 18.662C73.6694 18.454 73.9814 18.012 73.9814 17.336V9.172C73.9814 8.47867 73.8601 8.002 73.6174 7.742C73.3921 7.482 72.9848 7.352 72.3954 7.352C72.0141 7.352 71.5981 7.43 71.1474 7.586C70.6968 7.72467 70.2374 7.976 69.7694 8.34V17.388C69.7694 18.064 70.0814 18.4973 70.7054 18.688L70.9134 18.74V19H64.8294ZM83.2135 19.39C82.5895 19.39 82.0608 19.1733 81.6275 18.74C81.1941 18.3067 80.9775 17.7867 80.9775 17.18C80.9775 16.5733 81.1941 16.0447 81.6275 15.594C82.0608 15.1433 82.5895 14.918 83.2135 14.918C83.8375 14.918 84.3661 15.1433 84.7995 15.594C85.2328 16.0447 85.4495 16.5733 85.4495 17.18C85.4495 17.7867 85.2328 18.3067 84.7995 18.74C84.3661 19.1733 83.8375 19.39 83.2135 19.39Z" fill="#F8F2E4"/>
</svg>
