<svg width="93" height="27" viewBox="0 0 93 27" fill="none" xmlns="http://www.w3.org/2000/svg">
<path d="M0.761109 20V19.72L1.46111 19.468C1.83444 19.3187 2.12378 19.1413 2.32911 18.936C2.53444 18.712 2.70244 18.404 2.83311 18.012L8.60111 1.464H10.9811L16.6651 18.124C16.8144 18.5347 16.9824 18.852 17.1691 19.076C17.3558 19.2813 17.6451 19.4587 18.0371 19.608L18.3731 19.72V20H11.2611V19.72L11.6811 19.58C12.0731 19.4307 12.3064 19.2253 12.3811 18.964C12.4744 18.684 12.4651 18.3573 12.3531 17.984L11.0371 13.952H4.82111L3.47711 17.9C3.34644 18.3107 3.29978 18.6373 3.33711 18.88C3.39311 19.1227 3.61711 19.3187 4.00911 19.468L4.62511 19.72V20H0.761109ZM5.01711 13.392H10.8691L8.04111 4.684L5.01711 13.392ZM19.308 20V19.72L19.7 19.608C20.3534 19.4213 20.68 18.964 20.68 18.236V9.472C20.68 9.06133 20.6147 8.76267 20.484 8.576C20.3534 8.37067 20.1014 8.23067 19.728 8.156L19.308 8.044V7.764L24.096 6.14L24.376 6.42L24.6 8.1C25.2534 7.52133 25.9907 7.04533 26.812 6.672C27.6334 6.29867 28.4454 6.112 29.248 6.112C30.48 6.112 31.4227 6.448 32.076 7.12C32.748 7.792 33.084 8.81867 33.084 10.2V18.264C33.084 18.992 33.4387 19.4493 34.148 19.636L34.4 19.72V20H27.792V19.72L28.156 19.608C28.8094 19.4027 29.136 18.9453 29.136 18.236V9.304C29.136 8.10933 28.5387 7.512 27.344 7.512C26.5227 7.512 25.6267 7.92267 24.656 8.744V18.264C24.656 18.992 24.9827 19.4493 25.636 19.636L25.888 19.72V20H19.308ZM39.0795 4.656C38.4449 4.656 37.9129 4.46 37.4835 4.068C37.0542 3.65733 36.8395 3.144 36.8395 2.528C36.8395 1.89333 37.0542 1.38 37.4835 0.987999C37.9129 0.595999 38.4449 0.399999 39.0795 0.399999C39.7142 0.399999 40.2462 0.595999 40.6755 0.987999C41.1235 1.38 41.3475 1.89333 41.3475 2.528C41.3475 3.144 41.1235 3.65733 40.6755 4.068C40.2462 4.46 39.7142 4.656 39.0795 4.656ZM34.9355 26.72C33.8715 26.72 33.1062 26.5333 32.6395 26.16C32.1729 25.8053 31.9395 25.3387 31.9395 24.76C31.9395 24.2373 32.1262 23.8173 32.4995 23.5C32.8729 23.1827 33.3115 23.024 33.8155 23.024C34.3195 23.024 34.7769 23.1453 35.1875 23.388C35.5982 23.6493 35.9155 24.0507 36.1395 24.592L36.4195 25.208C36.5502 25.4133 36.6995 25.4787 36.8675 25.404C37.0542 25.348 37.1475 25.0587 37.1475 24.536V9.472C37.1475 9.04267 37.0449 8.73467 36.8395 8.548C36.6529 8.34267 36.3729 8.20267 35.9995 8.128L35.5795 8.072V7.792L40.8155 6.14L41.1515 6.42L41.0675 10.396V18.18C41.0675 19.3933 41.0115 20.4107 40.8995 21.232C40.8062 22.0533 40.6289 22.744 40.3675 23.304C40.1249 23.8827 39.7702 24.4147 39.3035 24.9C38.6502 25.5533 37.9409 26.02 37.1755 26.3C36.4102 26.58 35.6635 26.72 34.9355 26.72ZM50.4545 20.42C49.0359 20.42 47.8039 20.1307 46.7585 19.552C45.7132 18.9547 44.9012 18.1147 44.3225 17.032C43.7625 15.9493 43.4825 14.68 43.4825 13.224C43.4825 11.768 43.7812 10.508 44.3785 9.444C44.9945 8.38 45.8252 7.55867 46.8705 6.98C47.9345 6.40133 49.1292 6.112 50.4545 6.112C51.7799 6.112 52.9652 6.40133 54.0105 6.98C55.0559 7.54 55.8772 8.352 56.4745 9.416C57.0905 10.48 57.3985 11.7493 57.3985 13.224C57.3985 14.6987 57.1092 15.9773 56.5305 17.06C55.9705 18.124 55.1679 18.9547 54.1225 19.552C53.0959 20.1307 51.8732 20.42 50.4545 20.42ZM50.4545 19.86C51.1079 19.86 51.6305 19.6733 52.0225 19.3C52.4145 18.9267 52.6945 18.264 52.8625 17.312C53.0492 16.36 53.1425 15.016 53.1425 13.28C53.1425 11.5253 53.0492 10.172 52.8625 9.22C52.6945 8.268 52.4145 7.60533 52.0225 7.232C51.6305 6.85867 51.1079 6.672 50.4545 6.672C49.8012 6.672 49.2692 6.85867 48.8585 7.232C48.4665 7.60533 48.1772 8.268 47.9905 9.22C47.8225 10.172 47.7385 11.5253 47.7385 13.28C47.7385 15.016 47.8225 16.36 47.9905 17.312C48.1772 18.264 48.4665 18.9267 48.8585 19.3C49.2692 19.6733 49.8012 19.86 50.4545 19.86ZM63.4724 20.42C62.5577 20.42 61.7364 20.308 61.0084 20.084C60.2804 19.8787 59.6084 19.6173 58.9924 19.3L59.0204 15.968H59.3004L60.2524 17.648C60.663 18.3947 61.111 18.9547 61.5964 19.328C62.1004 19.6827 62.735 19.86 63.5004 19.86C64.3964 19.86 65.115 19.664 65.6564 19.272C66.2164 18.8613 66.4964 18.32 66.4964 17.648C66.4964 17.032 66.3004 16.528 65.9084 16.136C65.5164 15.744 64.7884 15.3893 63.7244 15.072L62.5484 14.708C61.4097 14.372 60.5137 13.8493 59.8604 13.14C59.207 12.4307 58.8804 11.5627 58.8804 10.536C58.8804 9.304 59.3657 8.25867 60.3364 7.4C61.307 6.54133 62.6977 6.112 64.5084 6.112C65.2364 6.112 65.9177 6.196 66.5524 6.364C67.2057 6.51333 67.831 6.74667 68.4284 7.064L68.2604 10.088H67.9804L67.0004 8.352C66.6457 7.736 66.291 7.30667 65.9364 7.064C65.6004 6.80267 65.087 6.672 64.3964 6.672C63.7617 6.672 63.1644 6.84933 62.6044 7.204C62.0444 7.55867 61.7644 8.06267 61.7644 8.716C61.7644 9.35067 61.9977 9.85467 62.4644 10.228C62.9497 10.6013 63.659 10.9467 64.5924 11.264L65.8524 11.628C67.1964 12.0387 68.1577 12.608 68.7364 13.336C69.315 14.0453 69.6044 14.904 69.6044 15.912C69.6044 17.2747 69.063 18.3667 67.9804 19.188C66.9164 20.0093 65.4137 20.42 63.4724 20.42ZM70.4702 20V19.72L70.8062 19.608C71.4782 19.384 71.8142 18.9173 71.8142 18.208V3.256C71.8142 2.864 71.7488 2.57467 71.6182 2.388C71.4875 2.20133 71.2355 2.06133 70.8622 1.968L70.4422 1.856V1.576L75.3702 0.371999L75.8182 0.623999L75.7062 4.572V8.072C76.3595 7.53067 77.0595 7.07333 77.8062 6.7C78.5715 6.308 79.4115 6.112 80.3262 6.112C81.5395 6.112 82.5008 6.45733 83.2102 7.148C83.9382 7.83867 84.3022 8.90267 84.3022 10.34V18.236C84.3022 18.6093 84.3768 18.908 84.5262 19.132C84.6755 19.356 84.9368 19.524 85.3102 19.636L85.5342 19.72V20H78.9822V19.72L79.3182 19.636C79.9902 19.412 80.3262 18.936 80.3262 18.208V9.416C80.3262 8.66933 80.1955 8.156 79.9342 7.876C79.6915 7.596 79.2528 7.456 78.6182 7.456C78.2075 7.456 77.7595 7.54 77.2742 7.708C76.7888 7.85733 76.2942 8.128 75.7902 8.52V18.264C75.7902 18.992 76.1262 19.4587 76.7982 19.664L77.0222 19.72V20H70.4702ZM90.2684 20.42C89.5964 20.42 89.027 20.1867 88.5604 19.72C88.0937 19.2533 87.8604 18.6933 87.8604 18.04C87.8604 17.3867 88.0937 16.8173 88.5604 16.332C89.027 15.8467 89.5964 15.604 90.2684 15.604C90.9404 15.604 91.5097 15.8467 91.9764 16.332C92.443 16.8173 92.6764 17.3867 92.6764 18.04C92.6764 18.6933 92.443 19.2533 91.9764 19.72C91.5097 20.1867 90.9404 20.42 90.2684 20.42Z" fill="#FEF5E4"/>
</svg>
